<svg width="25" height="24" viewBox="0 0 25 24" fill="none" xmlns="http://www.w3.org/2000/svg">
<mask id="path-1-outside-1_7_48" maskUnits="userSpaceOnUse" x="0.299622" y="-0.318848" width="24" height="24" fill="black">
<rect fill="white" x="0.299622" y="-0.318848" width="24" height="24"/>
<path d="M12.6268 2.68115C17.7777 2.68133 21.9529 6.85736 21.9529 12.0083C21.9529 14.3898 21.0586 16.5612 19.5897 18.2095L20.0906 20.5454L17.4656 19.9819C16.0548 20.84 14.3987 21.3344 12.6268 21.3345C7.47583 21.3345 3.2998 17.1592 3.29962 12.0083C3.29962 6.85725 7.47571 2.68115 12.6268 2.68115Z"/>
</mask>
<path d="M12.6268 2.68115L12.6269 0.351192H12.6268V2.68115ZM21.9529 12.0083L24.2829 12.0084V12.0083H21.9529ZM19.5897 18.2095L17.8503 16.6592L17.0636 17.5419L17.3115 18.6981L19.5897 18.2095ZM20.0906 20.5454L19.6016 22.8235L23.1243 23.5796L22.3688 20.0568L20.0906 20.5454ZM17.4656 19.9819L17.9546 17.7039L17.0476 17.5092L16.2549 17.9912L17.4656 19.9819ZM12.6268 21.3345L12.6268 23.6644L12.6269 23.6644L12.6268 21.3345ZM3.29962 12.0083L0.969661 12.0083L0.969661 12.0084L3.29962 12.0083ZM12.6268 2.68115L12.6267 5.01111C16.4906 5.01125 19.623 8.14392 19.623 12.0083H21.9529H24.2829C24.2829 5.57079 19.0647 0.35142 12.6269 0.351192L12.6268 2.68115ZM21.9529 12.0083L19.623 12.0082C19.6229 13.7949 18.9546 15.4201 17.8503 16.6592L19.5897 18.2095L21.3291 19.7597C23.1627 17.7024 24.2828 14.9848 24.2829 12.0084L21.9529 12.0083ZM19.5897 18.2095L17.3115 18.6981L17.8125 21.034L20.0906 20.5454L22.3688 20.0568L21.8678 17.7209L19.5897 18.2095ZM20.0906 20.5454L20.5796 18.2673L17.9546 17.7039L17.4656 19.9819L16.9766 22.26L19.6016 22.8235L20.0906 20.5454ZM17.4656 19.9819L16.2549 17.9912C15.1983 18.6338 13.9593 19.0045 12.6267 19.0045L12.6268 21.3345L12.6269 23.6644C14.8381 23.6644 16.9113 23.0461 18.6763 21.9726L17.4656 19.9819ZM12.6268 21.3345V19.0045C8.76239 19.0045 5.62972 15.8721 5.62958 12.0082L3.29962 12.0083L0.969661 12.0084C0.969889 18.4463 6.18926 23.6644 12.6268 23.6644V21.3345ZM3.29962 12.0083H5.62958C5.62958 8.14405 8.76252 5.01111 12.6268 5.01111V2.68115V0.351192C6.18891 0.351192 0.969661 5.57044 0.969661 12.0083H3.29962Z" fill="black" mask="url(#path-1-outside-1_7_48)"/>
</svg>
